<?xml version="1.0" encoding="utf-8"?>
<!-- Generator: Adobe Illustrator 16.0.0, SVG Export Plug-In . SVG Version: 6.00 Build 0)  -->
<!DOCTYPE svg PUBLIC "-//W3C//DTD SVG 1.1//EN" "http://www.w3.org/Graphics/SVG/1.1/DTD/svg11.dtd">
<svg version="1.1" id="Layer_1" xmlns="http://www.w3.org/2000/svg" xmlns:xlink="http://www.w3.org/1999/xlink" x="0px" y="0px"
	 width="100px" height="100px" viewBox="0 0 100 100" style="enable-background:new 0 0 100 100;" xml:space="preserve">
<style type="text/css">
<![CDATA[
	.st0{fill:#ADACAE;}
	.st1{fill:#83C0F1;}
	.st2{fill:#EDD2B7;}
	.st3{fill:#F1C0D1;}
	.st4{fill:#F2C5AB;}
	.st5{fill:#5B4630;}
	.st6{fill:#F8DDC2;}
	.st7{fill:#FFFFFF;}
	.st8{fill:#A38B75;}
]]>
</style>
<g>
	<path class="st5" d="M92.9,54.8c0.7-2.7,1.1-5.6,1.1-8.6c0-10.2-4.4-19.3-11.5-25.6C77,9,65.2,1,51.5,1C40.1,1,30,6.6,23.8,15.1
		C14.9,20.5,9,30.3,9,41.5c0,1.9,0.2,3.7,0.5,5.5c-3.7,4.8-5.9,10.9-5.9,17.4c0,15.9,12.9,28.7,28.7,28.7c2.6,0,5.1-0.4,7.6-1
		c3.5,1.5,7.4,2.4,11.5,2.4c1.2,0,2.4-0.1,3.6-0.3c3.8,1.9,8.1,3,12.7,3c15.9,0,28.7-12.9,28.7-28.7C96.4,63.5,95.1,58.9,92.9,54.8z
		"/>
	<path class="st6" d="M77.1,44.5c0-14.7-12.1-26.6-26.8-26.6S23.7,29.8,23.7,44.5c0,1.2-0.1,5.6-0.1,6.8c0,14.7,12.1,26.6,26.8,26.6
		c14.7,0,26.8-11.9,26.8-26.6C77.1,50.1,77.1,45.6,77.1,44.5z"/>
	<ellipse class="st7" cx="38.5" cy="45.5" rx="6.5" ry="4.2"/>
	<ellipse class="st7" cx="62.7" cy="45.5" rx="6.5" ry="4.2"/>
	<circle class="st1" cx="38.4" cy="45.6" r="2.8"/>
	<circle class="st1" cx="62.7" cy="45.6" r="2.8"/>
	<path class="st4" d="M52.8,54.5c-0.1-1.5-1.1-2.6-2.4-2.6c-1.3,0-2.2,1.2-2.4,2.6c0,0.3-0.4,2-0.4,2.6c0,1.7,1.3,3.1,2.8,3.1
		c1.6,0,2.8-1.4,2.8-3.1C53.2,56.4,52.8,54.8,52.8,54.5z"/>
	<path class="st0" d="M47.8,45.9h-0.3c0,2.6-1.1,5-2.8,6.7c-1.7,1.7-4.1,2.8-6.7,2.8s-5-1.1-6.7-2.8c-1.7-1.7-2.8-4.1-2.8-6.7
		c0-2.6,1.1-5,2.8-6.7c1.7-1.7,4.1-2.8,6.7-2.8s5,1.1,6.7,2.8c1.7,1.7,2.8,4.1,2.8,6.7H47.8h0.3c0-5.5-4.5-10-10-10
		c-5.5,0-10,4.5-10,10c0,5.5,4.5,10,10,10c5.5,0,10-4.5,10-10H47.8z"/>
	<path class="st0" d="M72.8,45.9h-0.3c0,2.6-1.1,5-2.8,6.7c-1.7,1.7-4.1,2.8-6.7,2.8s-5-1.1-6.7-2.8c-1.7-1.7-2.8-4.1-2.8-6.7
		c0-2.6,1.1-5,2.8-6.7c1.7-1.7,4.1-2.8,6.7-2.8s5,1.1,6.7,2.8c1.7,1.7,2.8,4.1,2.8,6.7H72.8h0.3c0-5.5-4.5-10-10-10
		c-5.5,0-10,4.5-10,10c0,5.5,4.5,10,10,10c5.5,0,10-4.5,10-10H72.8z"/>
	<path class="st0" d="M47.9,46.2L47.9,46.2c0.1-0.1,1.3-0.5,2.8-0.5c0.8,0,1.7,0.1,2.5,0.5l0.2-0.5c-0.9-0.4-1.9-0.5-2.7-0.5
		c-1.7,0-3,0.5-3,0.5L47.9,46.2z"/>
	<polyline class="st0" points="72.8,46.2 77.1,45.8 77.1,45.3 72.8,45.7 	"/>
	<polyline class="st0" points="28.3,45.7 23.7,45 23.6,45.5 28.2,46.2 	"/>
	<path class="st3" d="M57.6,64.5c-1-0.1-1.3,0.2-1.7,0c-2.2-1.1-5-0.5-5.5,0c-0.7-0.7-3.3-1.1-5.5,0c-0.3,0.1-0.7-0.1-1.7,0
		c-1,0.2,4.7,4.6,5,4.8c1.2,0.7,3,0.8,4.2,0C52.9,69.1,58.6,64.7,57.6,64.5z"/>
	<path class="st2" d="M42.3,57.6c0.5,0,0.5-0.8,0-0.8C41.8,56.8,41.8,57.6,42.3,57.6z"/>
	<path class="st2" d="M34,58.5c0.5,0,0.5-0.8,0-0.8S33.5,58.5,34,58.5z"/>
	<path class="st2" d="M29.1,54.1c0.5,0,0.5-0.8,0-0.8S28.6,54.1,29.1,54.1z"/>
	<path class="st2" d="M63.2,59.1c0.5,0,0.5-0.8,0-0.8S62.7,59.1,63.2,59.1z"/>
	<path class="st2" d="M61,52.9c0.5,0,0.5-0.8,0-0.8S60.5,52.9,61,52.9z"/>
	<path class="st2" d="M57.7,58.5c0.5,0,0.5-0.8,0-0.8C57.2,57.7,57.2,58.5,57.7,58.5z"/>
	<path class="st2" d="M72,57.7c0.5,0,0.5-0.8,0-0.8S71.5,57.7,72,57.7z"/>
	<path class="st2" d="M66.4,63c0.5,0,0.5-0.8,0-0.8C65.9,62.2,65.9,63,66.4,63z"/>
	<path class="st2" d="M40.2,62.4c0.5,0,0.5-0.8,0-0.8S39.7,62.4,40.2,62.4z"/>
	<path class="st2" d="M32.6,61.6c0.5,0,0.5-0.8,0-0.8C32.1,60.9,32.1,61.6,32.6,61.6z"/>
	<path class="st2" d="M32.9,66.4c0.5,0,0.5-0.8,0-0.8S32.4,66.4,32.9,66.4z"/>
	<path class="st8" d="M70.5,37c0,0-0.2-0.1-0.6-0.3c-0.4-0.2-1-0.4-1.7-0.7c-0.4-0.1-0.7-0.2-1.1-0.3c-0.4-0.1-0.8-0.2-1.3-0.2
		c-0.4-0.1-0.9-0.1-1.4-0.1c-0.5,0-0.9,0-1.4,0c-0.2,0-0.5,0-0.7,0.1c-0.2,0-0.5,0.1-0.7,0.1c-0.5,0.1-0.9,0.2-1.3,0.3
		c-0.4,0.1-0.8,0.2-1.2,0.3c-0.2,0-0.4,0.1-0.6,0.1c-0.2,0-0.4,0.1-0.5,0.1c-0.3,0.1-0.7,0.2-1,0.2c-0.3,0.1-0.6,0.1-0.8,0.2
		C55.8,37,55.6,37,55.6,37h0c0,0-0.1,0-0.1-0.1c0,0,0,0,0-0.1c0,0,0.2-0.2,0.5-0.5c0.2-0.2,0.4-0.3,0.6-0.5c0.2-0.2,0.6-0.4,0.9-0.6
		c0.3-0.2,0.7-0.4,1.1-0.6c0.4-0.2,0.9-0.3,1.4-0.4c0.5-0.1,1-0.2,1.5-0.2c0.3,0,0.5,0,0.8,0l0.4,0l0.4,0c0.5,0,1,0.1,1.5,0.2
		c0.5,0.1,1,0.2,1.5,0.3c0.5,0.1,0.9,0.3,1.3,0.4c0.4,0.2,0.8,0.3,1.1,0.5c0.7,0.3,1.2,0.7,1.6,0.9c0.4,0.3,0.6,0.4,0.6,0.4
		c0,0,0,0.1,0,0.1C70.6,37.1,70.6,37.1,70.5,37z"/>
	<path class="st8" d="M30.4,36.9c0,0,0.2-0.2,0.6-0.4c0.4-0.3,0.9-0.6,1.6-0.9c0.3-0.2,0.7-0.3,1.1-0.5c0.4-0.2,0.8-0.3,1.3-0.4
		c0.5-0.1,1-0.2,1.5-0.3c0.5-0.1,1-0.1,1.5-0.2l0.4,0l0.4,0c0.3,0,0.5,0,0.8,0c0.5,0,1,0.1,1.5,0.2c0.5,0.1,0.9,0.2,1.4,0.4
		c0.4,0.2,0.8,0.4,1.1,0.6c0.3,0.2,0.6,0.4,0.9,0.6c0.3,0.2,0.5,0.4,0.6,0.5c0.3,0.3,0.5,0.5,0.5,0.5c0,0,0,0.1,0,0.1l-0.1,0h0
		c0,0-0.3,0-0.7-0.2c-0.2-0.1-0.5-0.1-0.8-0.2c-0.3-0.1-0.6-0.1-1-0.2c-0.2,0-0.4-0.1-0.5-0.1c-0.2-0.1-0.4-0.1-0.6-0.1
		c-0.4-0.1-0.8-0.2-1.2-0.3c-0.4-0.1-0.9-0.2-1.3-0.3c-0.2,0-0.5-0.1-0.7-0.1c-0.2,0-0.5-0.1-0.7-0.1c-0.5,0-1,0-1.4,0
		c-0.5,0-0.9,0.1-1.4,0.1c-0.4,0.1-0.9,0.2-1.3,0.2c-0.4,0.1-0.8,0.2-1.1,0.3c-0.7,0.2-1.3,0.5-1.7,0.7c-0.4,0.2-0.6,0.3-0.6,0.3
		c0,0-0.1,0-0.1,0C30.4,37,30.4,36.9,30.4,36.9z"/>
</g>
</svg>
