<?xml version="1.0" encoding="utf-8"?>
<!-- Generator: Adobe Illustrator 16.0.0, SVG Export Plug-In . SVG Version: 6.00 Build 0)  -->
<!DOCTYPE svg PUBLIC "-//W3C//DTD SVG 1.1//EN" "http://www.w3.org/Graphics/SVG/1.1/DTD/svg11.dtd">
<svg version="1.1" id="Layer_1" xmlns="http://www.w3.org/2000/svg" xmlns:xlink="http://www.w3.org/1999/xlink" x="0px" y="0px"
	 width="520px" height="240px" viewBox="0 0 520 240" style="enable-background:new 0 0 520 240;" xml:space="preserve">
<style type="text/css">
<![CDATA[
	.st0{fill:#A5A5A5;}
]]>
</style>
<g>
	<g>
		<path class="st0" d="M68.7,151.2c-5.8-2.2-9.6-7.6-15-10.5c-1.7-0.9-3.2,1.7-1.5,2.6c5.7,3,9.5,8.5,15.7,10.8
			C69.8,154.8,70.5,151.9,68.7,151.2L68.7,151.2z"/>
	</g>
</g>
<g>
	<g>
		<path class="st0" d="M62.3,174.5c-6.2-0.1-12.2-1.3-18.3-2.6c-1.9-0.4-2.7,2.5-0.8,2.9c6.3,1.4,12.6,2.6,19.1,2.7
			C64.3,177.5,64.3,174.5,62.3,174.5L62.3,174.5z"/>
	</g>
</g>
<g>
	<g>
		<path class="st0" d="M61.9,199.9c-6.9,1.6-12.9,5.3-19.3,8c-1.8,0.7-1,3.6,0.8,2.9c6.4-2.7,12.5-6.5,19.3-8
			C64.6,202.4,63.8,199.5,61.9,199.9L61.9,199.9z"/>
	</g>
</g>
<g>
	<g>
		<path class="st0" d="M448.1,147.4c5.9-2.3,11.4-5.3,16-9.7c1.4-1.3-0.7-3.5-2.1-2.1c-4.2,4-9.3,6.9-14.7,8.9
			C445.5,145.2,446.3,148.1,448.1,147.4L448.1,147.4z"/>
	</g>
</g>
<g>
	<g>
		<path class="st0" d="M463.7,172.2c6.4,0,12.8,0.5,19.1-1.4c1.8-0.6,1.1-3.5-0.8-2.9c-6,1.8-12.1,1.3-18.3,1.3
			C461.7,169.2,461.7,172.2,463.7,172.2L463.7,172.2z"/>
	</g>
</g>
<g>
	<g>
		<path class="st0" d="M463.9,198.8c6.6,0.9,11.8,5.1,17.6,7.8c1.7,0.8,3.3-1.8,1.5-2.6c-6.1-2.8-11.5-7.2-18.4-8.2
			C462.8,195.6,462,198.5,463.9,198.8L463.9,198.8z"/>
	</g>
</g>
</svg>
