<?xml version="1.0" encoding="utf-8"?>
<!-- Generator: Adobe Illustrator 16.0.0, SVG Export Plug-In . SVG Version: 6.00 Build 0)  -->
<!DOCTYPE svg PUBLIC "-//W3C//DTD SVG 1.1//EN" "http://www.w3.org/Graphics/SVG/1.1/DTD/svg11.dtd">
<svg version="1.1" id="Layer_1" xmlns="http://www.w3.org/2000/svg" xmlns:xlink="http://www.w3.org/1999/xlink" x="0px" y="0px"
	 width="100px" height="100px" viewBox="0 0 100 100" style="enable-background:new 0 0 100 100;" xml:space="preserve">
<style type="text/css">
<![CDATA[
	.st0{fill:#F2C5AB;}
	.st1{fill:#F8DDC2;}
	.st2{fill:#FDA887;}
	.st3{fill:#FFFFFF;}
	.st4{fill:#A38B75;}
	.st5{fill:#453321;}
]]>
</style>
<g>
	<ellipse class="st5" cx="50" cy="49.5" rx="40.6" ry="48"/>
	<path class="st1" d="M77,42c0-14.5-12-26.3-26.5-26.3C36,15.7,24.1,27.4,24.1,42c0,1.1-0.1,5.6-0.1,6.7C24,63.2,36,75,50.5,75
		C65,75,77,63.2,77,48.7C77,47.5,77,43.1,77,42z"/>
	<ellipse class="st3" cx="38.9" cy="44.8" rx="6" ry="3.8"/>
	<ellipse class="st3" cx="62.4" cy="44.8" rx="6" ry="3.8"/>
	<circle class="st5" cx="38.8" cy="44.9" r="2.6"/>
	<circle class="st5" cx="62.3" cy="44.9" r="2.6"/>
	<path class="st0" d="M53.1,51.9c-0.1-1.5-1.1-2.6-2.4-2.6c-1.3,0-2.2,1.2-2.4,2.6c0,0.3-0.4,1.9-0.4,2.6c0,1.7,1.3,3.1,2.8,3.1
		c1.6,0,2.8-1.4,2.8-3.1C53.6,53.8,53.2,52.2,53.1,51.9z"/>
	<path class="st2" d="M57.7,62.8c-1-0.1-1.3,0.2-1.6,0.1c-2.2-0.8-5-0.4-5.4,0c-0.7-0.5-3.2-0.8-5.4,0c-0.3,0.1-0.7-0.2-1.6-0.1
		c-1,0.1,4.7,3.6,5,3.8c1.2,0.6,2.9,0.6,4.2,0C53,66.4,58.7,63,57.7,62.8z"/>
	<path class="st4" d="M70.8,37.4c0,0-0.2-0.1-0.6-0.3c-0.4-0.2-1-0.4-1.7-0.5c-0.4-0.1-0.7-0.2-1.1-0.2c-0.4-0.1-0.8-0.1-1.3-0.1
		c-0.4,0-0.9,0-1.4,0c-0.5,0-0.9,0-1.4,0.1c-0.2,0-0.5,0.1-0.7,0.1c-0.2,0-0.5,0.1-0.7,0.2c-0.4,0.1-0.9,0.3-1.3,0.4
		c-0.4,0.1-0.8,0.2-1.2,0.4c-0.2,0.1-0.4,0.1-0.6,0.2c-0.2,0.1-0.4,0.1-0.5,0.2c-0.3,0.1-0.7,0.2-0.9,0.3c-0.3,0.1-0.5,0.2-0.7,0.2
		c-0.4,0.1-0.7,0.2-0.7,0.2l0,0c0,0-0.1,0-0.1-0.1c0,0,0,0,0-0.1c0,0,0.2-0.2,0.5-0.5c0.2-0.2,0.4-0.4,0.6-0.6
		c0.2-0.2,0.5-0.4,0.8-0.6c0.3-0.2,0.7-0.4,1.1-0.6c0.4-0.2,0.8-0.4,1.3-0.5c0.5-0.1,1-0.2,1.5-0.3c0.3,0,0.5-0.1,0.8-0.1l0.4,0
		l0.4,0c0.5,0,1,0,1.5,0c0.5,0,1,0.1,1.5,0.2c0.5,0.1,0.9,0.2,1.3,0.3c0.4,0.1,0.8,0.3,1.1,0.4c0.7,0.3,1.3,0.6,1.6,0.8
		c0.4,0.2,0.6,0.4,0.6,0.4C70.9,37.3,70.9,37.3,70.8,37.4C70.9,37.4,70.8,37.4,70.8,37.4z"/>
	<path class="st5" d="M50,12.8c-14.5,0-26.4,11.8-26.4,26.3c0,0.6,0,1.9,0,3.2c3.9,2,8.2,3.1,12.9,3.1c15.6,0,28.2-12.5,28.5-28
		C60.6,14.5,55.5,12.8,50,12.8z"/>
</g>
</svg>
